<svg xmlns="http://www.w3.org/2000/svg" width="4.009ex" height="2.262ex" role="img" focusable="false" viewBox="0 -750 1772.1 1000" xmlns:xlink="http://www.w3.org/1999/xlink" aria-hidden="true" style="vertical-align: -0.566ex;"><defs><path id="MJX-432-TEX-I-25FB" d="M71 0Q59 4 55 16V346L56 676Q64 686 70 689H709Q719 681 722 674V15Q719 10 709 1L390 0H71ZM682 40V649H95V40H682Z"/><path id="MJX-432-TEX-N-2212" d="M84 237T84 250T98 270H679Q694 262 694 250T679 230H98Q84 237 84 250Z"/></defs><g stroke="currentColor" fill="currentColor" stroke-width="0" transform="scale(1,-1)"><g data-mml-node="math"><g data-mml-node="mtable" data-width-includes-label="true"><g data-mml-node="mtr"><g data-mml-node="mtd"><g data-mml-node="mi"><use data-c="25FB" xmlns:xlink="http://www.w3.org/1999/xlink" xlink:href="#MJX-432-TEX-I-25FB"/></g><g data-mml-node="mstyle" transform="translate(778,0)"><g data-mml-node="mspace"/></g><g data-mml-node="TeXAtom" data-mjx-texclass="ORD" transform="translate(611,0)"><g data-mml-node="mstyle" transform="scale(0.707)"><g data-mml-node="mo"><use data-c="2212" xmlns:xlink="http://www.w3.org/1999/xlink" xlink:href="#MJX-432-TEX-N-2212"/></g></g></g><g data-mml-node="mstyle" transform="translate(1161.1,0)"><g data-mml-node="mspace"/></g><g data-mml-node="mi" transform="translate(994.1,0)"><use data-c="25FB" xmlns:xlink="http://www.w3.org/1999/xlink" xlink:href="#MJX-432-TEX-I-25FB"/></g></g></g></g></g></g></svg>